<svg width="20" height="20" viewBox="0 0 20 20" fill="none" xmlns="http://www.w3.org/2000/svg">
<path d="M17.5611 10.0985L19.0926 12.7501C20.0591 14.4241 19.4855 16.5647 17.8115 17.5312C17.2794 17.8384 16.6759 18.0001 16.0615 18.0001L13.9993 17.9995V20.0001L8.9993 16.5001L13.9993 13.0001V14.9995L16.0615 15.0001C16.1493 15.0001 16.2355 14.977 16.3115 14.9331C16.5241 14.8104 16.6124 14.5551 16.5325 14.332L16.4945 14.2501L14.9631 11.5985L17.5611 10.0985ZM5.73617 7.38407L6.26726 13.4642L4.53571 12.4645L3.50412 14.2501C3.46023 14.3261 3.43713 14.4123 3.43713 14.5001C3.43713 14.7456 3.614 14.9497 3.84725 14.992L3.93713 15.0001L6.99919 14.9997V17.9996L3.93713 18.0001C2.00413 18.0001 0.437128 16.4331 0.437128 14.5001C0.437128 13.8857 0.598848 13.2822 0.906038 12.7501L1.93763 10.9645L0.205078 9.9642L5.73617 7.38407ZM11.7493 0.969009C12.2814 1.2762 12.7232 1.71803 13.0304 2.2501L14.061 4.03629L15.7935 3.03599L15.2624 9.1161L9.7314 6.53599L11.4629 5.53629L10.4323 3.7501C10.3884 3.67409 10.3253 3.61097 10.2493 3.56708C10.0367 3.44435 9.7715 3.49546 9.6182 3.67629L9.5663 3.7501L8.0356 6.40209L5.4376 4.90216L6.96822 2.2501C7.93472 0.576069 10.0753 0.00250897 11.7493 0.969009Z" fill="#696F69"/>
</svg>
