<svg width="21" height="21" viewBox="0 0 21 21" fill="none" xmlns="http://www.w3.org/2000/svg">
<path d="M0 21C0 16.5817 3.58172 13 8 13C12.4183 13 16 16.5817 16 21H0ZM8 12C4.685 12 2 9.315 2 6C2 2.685 4.685 0 8 0C11.315 0 14 2.685 14 6C14 9.315 11.315 12 8 12ZM15.3628 14.2332C18.4482 15.0217 20.7679 17.7235 20.9836 21H18C18 18.3902 17.0002 16.0139 15.3628 14.2332ZM13.3401 11.9569C14.9728 10.4922 16 8.36607 16 6C16 4.58266 15.6314 3.25141 14.9849 2.09687C17.2753 2.55397 19 4.57465 19 7C19 9.7625 16.7625 12 14 12C13.7763 12 13.556 11.9853 13.3401 11.9569Z" fill="#696F69"/>
</svg>
