<svg width="21" height="21" viewBox="0 0 21 21" fill="none" xmlns="http://www.w3.org/2000/svg">
<path d="M4 20.5C2.067 20.5 0.5 18.933 0.5 17C0.5 15.067 2.067 13.5 4 13.5C5.5852 13.5 6.92427 14.5538 7.35481 15.9991L13 15.9993V14L15 13.9993V8.24332L12.757 5.99932H7V7.99996H1V1.99996H7V3.99932H12.757L16 0.757324L20.2426 4.99996L17 8.24132V13.9993L19 14V20H13V17.9993L7.35499 18.0002C6.92464 19.4458 5.58543 20.5 4 20.5ZM4 15.5C3.17157 15.5 2.5 16.1715 2.5 17C2.5 17.8284 3.17157 18.5 4 18.5C4.82843 18.5 5.5 17.8284 5.5 17C5.5 16.1715 4.82843 15.5 4 15.5ZM17 16H15V18H17V16ZM16 3.58575L14.5858 4.99996L16 6.41418L17.4142 4.99996L16 3.58575ZM5 3.99996H3V5.99996H5V3.99996Z" fill="#696F69"/>
</svg>
